<svg width="609" height="609" viewBox="0 0 609 609" fill="none" xmlns="http://www.w3.org/2000/svg">
<mask id="mask0_254_99" style="mask-type:alpha" maskUnits="userSpaceOnUse" x="0" y="0" width="609" height="609">
<circle cx="304.5" cy="304.5" r="304.5" fill="#D9D9D9"/>
</mask>
<g mask="url(#mask0_254_99)">
<rect x="-43" y="-19" width="669" height="659" fill="white"/>
<path d="M609 133.623C371.732 25.5191 246.258 279.763 1.62721e-05 133.623V526H609V133.623Z" fill="#4D4FFE"/>
<path d="M-7 154.964C236.112 29.8721 364.677 324.069 617 154.964V609H-7V154.964Z" fill="#7E09A1"/>
<path d="M136.068 322V252.182H150.591V278.432H151.034C151.67 277.023 152.591 275.591 153.795 274.136C155.023 272.659 156.614 271.432 158.568 270.455C160.545 269.455 163 268.955 165.932 268.955C169.75 268.955 173.273 269.955 176.5 271.955C179.727 273.932 182.307 276.92 184.239 280.92C186.17 284.898 187.136 289.886 187.136 295.886C187.136 301.727 186.193 306.659 184.307 310.682C182.443 314.682 179.898 317.716 176.67 319.784C173.466 321.83 169.875 322.852 165.898 322.852C163.08 322.852 160.682 322.386 158.705 321.455C156.75 320.523 155.148 319.352 153.898 317.943C152.648 316.511 151.693 315.068 151.034 313.614H150.386V322H136.068ZM150.284 295.818C150.284 298.932 150.716 301.648 151.58 303.966C152.443 306.284 153.693 308.091 155.33 309.386C156.966 310.659 158.955 311.295 161.295 311.295C163.659 311.295 165.659 310.648 167.295 309.352C168.932 308.034 170.17 306.216 171.011 303.898C171.875 301.557 172.307 298.864 172.307 295.818C172.307 292.795 171.886 290.136 171.045 287.841C170.205 285.545 168.966 283.75 167.33 282.455C165.693 281.159 163.682 280.511 161.295 280.511C158.932 280.511 156.932 281.136 155.295 282.386C153.682 283.636 152.443 285.409 151.58 287.705C150.716 290 150.284 292.705 150.284 295.818ZM211.349 252.182V322H196.827V252.182H211.349ZM256.562 299.705V269.636H271.085V322H257.142V312.489H256.597C255.415 315.557 253.449 318.023 250.699 319.886C247.972 321.75 244.642 322.682 240.71 322.682C237.21 322.682 234.131 321.886 231.472 320.295C228.813 318.705 226.733 316.443 225.233 313.511C223.756 310.58 223.006 307.068 222.983 302.977V269.636H237.506V300.386C237.528 303.477 238.358 305.92 239.994 307.716C241.631 309.511 243.824 310.409 246.574 310.409C248.324 310.409 249.96 310.011 251.483 309.216C253.006 308.398 254.233 307.193 255.165 305.602C256.119 304.011 256.585 302.045 256.562 299.705ZM306.565 323.023C301.179 323.023 296.543 321.932 292.656 319.75C288.793 317.545 285.815 314.432 283.724 310.409C281.634 306.364 280.588 301.58 280.588 296.057C280.588 290.67 281.634 285.943 283.724 281.875C285.815 277.807 288.759 274.636 292.554 272.364C296.372 270.091 300.849 268.955 305.986 268.955C309.44 268.955 312.656 269.511 315.634 270.625C318.634 271.716 321.247 273.364 323.474 275.568C325.724 277.773 327.474 280.545 328.724 283.886C329.974 287.205 330.599 291.091 330.599 295.545V299.534H286.384V290.534H316.929C316.929 288.443 316.474 286.591 315.565 284.977C314.656 283.364 313.395 282.102 311.781 281.193C310.19 280.261 308.338 279.795 306.224 279.795C304.02 279.795 302.065 280.307 300.361 281.33C298.679 282.33 297.361 283.682 296.406 285.386C295.452 287.068 294.963 288.943 294.94 291.011V299.568C294.94 302.159 295.418 304.398 296.372 306.284C297.349 308.17 298.724 309.625 300.497 310.648C302.27 311.67 304.372 312.182 306.804 312.182C308.418 312.182 309.895 311.955 311.236 311.5C312.577 311.045 313.724 310.364 314.679 309.455C315.634 308.545 316.361 307.432 316.861 306.114L330.293 307C329.611 310.227 328.213 313.045 326.099 315.455C324.009 317.841 321.304 319.705 317.986 321.045C314.69 322.364 310.884 323.023 306.565 323.023Z" fill="white"/>
<path d="M216 327C272.5 278.375 287 358 345 310.5C307.5 356.5 281 304.375 216 327Z" fill="white"/>
<path d="M276.5 277.5C311.5 236.5 310 276 370.5 255C335 281 306 248 276.5 277.5Z" fill="white"/>
<path d="M281 325.5C223.5 298.5 214 339 171 325.5C192.5 345 242 314 281 325.5Z" fill="#89CCFE"/>
<path d="M364.455 323.023C359.091 323.023 354.477 321.886 350.614 319.614C346.773 317.318 343.818 314.136 341.75 310.068C339.705 306 338.682 301.318 338.682 296.023C338.682 290.659 339.716 285.955 341.784 281.909C343.875 277.841 346.841 274.67 350.682 272.398C354.523 270.102 359.091 268.955 364.386 268.955C368.955 268.955 372.955 269.784 376.386 271.443C379.818 273.102 382.534 275.432 384.534 278.432C386.534 281.432 387.636 284.955 387.841 289H374.136C373.75 286.386 372.727 284.284 371.068 282.693C369.432 281.08 367.284 280.273 364.625 280.273C362.375 280.273 360.409 280.886 358.727 282.114C357.068 283.318 355.773 285.08 354.841 287.398C353.909 289.716 353.443 292.523 353.443 295.818C353.443 299.159 353.898 302 354.807 304.341C355.739 306.682 357.045 308.466 358.727 309.693C360.409 310.92 362.375 311.534 364.625 311.534C366.284 311.534 367.773 311.193 369.091 310.511C370.432 309.83 371.534 308.841 372.398 307.545C373.284 306.227 373.864 304.648 374.136 302.807H387.841C387.614 306.807 386.523 310.33 384.568 313.375C382.636 316.398 379.966 318.761 376.557 320.466C373.148 322.17 369.114 323.023 364.455 323.023ZM421.003 323.023C415.616 323.023 410.98 321.932 407.094 319.75C403.23 317.545 400.253 314.432 398.162 310.409C396.071 306.364 395.026 301.58 395.026 296.057C395.026 290.67 396.071 285.943 398.162 281.875C400.253 277.807 403.196 274.636 406.991 272.364C410.81 270.091 415.287 268.955 420.423 268.955C423.878 268.955 427.094 269.511 430.071 270.625C433.071 271.716 435.685 273.364 437.912 275.568C440.162 277.773 441.912 280.545 443.162 283.886C444.412 287.205 445.037 291.091 445.037 295.545V299.534H400.821V290.534H431.366C431.366 288.443 430.912 286.591 430.003 284.977C429.094 283.364 427.832 282.102 426.219 281.193C424.628 280.261 422.776 279.795 420.662 279.795C418.457 279.795 416.503 280.307 414.798 281.33C413.116 282.33 411.798 283.682 410.844 285.386C409.889 287.068 409.401 288.943 409.378 291.011V299.568C409.378 302.159 409.855 304.398 410.81 306.284C411.787 308.17 413.162 309.625 414.935 310.648C416.707 311.67 418.81 312.182 421.241 312.182C422.855 312.182 424.332 311.955 425.673 311.5C427.014 311.045 428.162 310.364 429.116 309.455C430.071 308.545 430.798 307.432 431.298 306.114L444.73 307C444.048 310.227 442.651 313.045 440.537 315.455C438.446 317.841 435.741 319.705 432.423 321.045C429.128 322.364 425.321 323.023 421.003 323.023ZM469.446 322.989C466.105 322.989 463.128 322.409 460.514 321.25C457.901 320.068 455.832 318.33 454.31 316.034C452.81 313.716 452.06 310.83 452.06 307.375C452.06 304.466 452.594 302.023 453.662 300.045C454.73 298.068 456.185 296.477 458.026 295.273C459.866 294.068 461.957 293.159 464.298 292.545C466.662 291.932 469.139 291.5 471.73 291.25C474.776 290.932 477.23 290.636 479.094 290.364C480.957 290.068 482.31 289.636 483.151 289.068C483.991 288.5 484.412 287.659 484.412 286.545V286.341C484.412 284.182 483.73 282.511 482.366 281.33C481.026 280.148 479.116 279.557 476.639 279.557C474.026 279.557 471.946 280.136 470.401 281.295C468.855 282.432 467.832 283.864 467.332 285.591L453.901 284.5C454.582 281.318 455.923 278.568 457.923 276.25C459.923 273.909 462.503 272.114 465.662 270.864C468.844 269.591 472.526 268.955 476.707 268.955C479.616 268.955 482.401 269.295 485.06 269.977C487.741 270.659 490.116 271.716 492.185 273.148C494.276 274.58 495.923 276.42 497.128 278.67C498.332 280.898 498.935 283.568 498.935 286.682V322H485.162V314.739H484.753C483.912 316.375 482.787 317.818 481.378 319.068C479.969 320.295 478.276 321.261 476.298 321.966C474.321 322.648 472.037 322.989 469.446 322.989ZM473.605 312.966C475.741 312.966 477.628 312.545 479.264 311.705C480.901 310.841 482.185 309.682 483.116 308.227C484.048 306.773 484.514 305.125 484.514 303.284V297.727C484.06 298.023 483.435 298.295 482.639 298.545C481.866 298.773 480.991 298.989 480.014 299.193C479.037 299.375 478.06 299.545 477.082 299.705C476.105 299.841 475.219 299.966 474.423 300.08C472.719 300.33 471.23 300.727 469.957 301.273C468.685 301.818 467.696 302.557 466.991 303.489C466.287 304.398 465.935 305.534 465.935 306.898C465.935 308.875 466.651 310.386 468.082 311.432C469.537 312.455 471.378 312.966 473.605 312.966Z" fill="white"/>
</g>
</svg>
